<svg width="200" height="201" viewBox="0 0 200 201" fill="none" xmlns="http://www.w3.org/2000/svg">
<path d="M90.9164 57.072C90.9164 57.072 73.352 59.054 72.22 86.2528C71.2771 108.917 69.3466 121.549 78.5665 126.277C81.8632 127.967 85.7372 128.114 89.2584 126.96L126.898 114.584C126.898 114.584 127.466 73.7871 114.433 63.8709C101.4 53.9548 90.9196 57.072 90.9196 57.072H90.9164Z" fill="#2F2E41"/>
<path d="M111.665 119.593L92.616 125.856V98.4363H109.898L111.665 119.593Z" fill="#F6A6A9"/>
<path d="M137.327 192.489C134.761 193.528 132.145 194.461 129.48 195.282C127.475 195.904 125.442 196.459 123.387 196.953C115.886 198.762 108.051 199.718 99.9984 199.718C97.7343 199.718 95.4895 199.644 93.2671 199.493C90.9934 199.342 88.7421 199.115 86.5165 198.81C85.6121 198.688 84.7142 198.557 83.8195 198.409C81.27 197.995 78.7493 197.479 76.2672 196.873C75.4301 196.671 74.5963 196.456 73.7658 196.225C73.4803 196.151 73.1949 196.071 72.9127 195.991C71.7422 195.661 70.5781 195.311 69.4236 194.936C69.3466 194.913 69.2664 194.888 69.1895 194.862C68.1568 194.529 67.1306 194.176 66.1108 193.807C65.1936 193.477 64.2829 193.13 63.3753 192.771L83.1652 127.633L83.9894 124.923L86.9141 115.299L86.9366 115.222L86.959 115.151H121.52L121.751 116.277L127.418 143.999L131.5 163.978L135.515 183.615L137.167 191.697L137.327 192.489Z" fill="#DDDEDF"/>
<path d="M92.4108 115.167L90.0858 124.798L89.7619 126.148L89.5919 126.851L79.2784 169.603L72.9127 195.991C71.7422 195.661 70.578 195.311 69.4236 194.936C69.3466 194.913 69.2664 194.888 69.1894 194.862C68.1568 194.529 67.1306 194.176 66.1108 193.807C65.1936 193.477 64.2828 193.13 63.3753 192.771C60.2133 191.524 57.1314 190.116 54.1393 188.563C60.8194 155.499 67.5251 122.989 68.6154 120.267C69.0932 119.07 70.4305 118.153 72.2424 117.448C72.7652 117.242 73.3296 117.056 73.9229 116.886C77.8129 115.777 83.0049 115.369 86.8981 115.225H86.9366C88.4887 115.171 89.8324 115.155 90.8009 115.155C91.7694 115.155 92.4108 115.171 92.4108 115.171V115.167Z" fill="#DDDEDF"/>
<path d="M94.9731 106.027C105.456 106.027 113.955 97.5286 113.955 87.0449C113.955 76.5612 105.456 68.0625 94.9731 68.0625C84.4898 68.0625 75.9913 76.5612 75.9913 87.0449C75.9913 97.5286 84.4898 106.027 94.9731 106.027Z" fill="#F6A6A9"/>
<path d="M89.7843 64.1563C89.7843 64.1563 79.3393 106.569 90.9548 126.402L74.5931 122.925C74.5931 122.925 68.253 76.5002 81.0037 68.0625L89.7875 64.1563H89.7843Z" fill="#2F2E41"/>
<path opacity="0.1" d="M86.5165 198.81C85.6121 198.688 84.7142 198.557 83.8195 198.409C81.27 197.995 78.7493 197.479 76.2672 196.873C75.4301 196.671 74.5963 196.456 73.7657 196.225L74.8337 188.034L77.6846 166.153L78.9674 170.893L80.1475 175.257L86.5165 198.81Z" fill="#272223"/>
<path opacity="0.1" d="M140.319 191.222C139.62 191.533 138.918 191.835 138.209 192.126C138.103 192.171 137.997 192.216 137.891 192.261C137.705 192.338 137.519 192.415 137.33 192.489C134.765 193.528 132.148 194.461 129.483 195.282C123.152 190.802 118.275 184.561 115.459 177.332L113.958 173.481L104.344 145.631L125.644 167.981L129.537 174.145L135.518 183.612L140.322 191.219H140.319V191.222Z" fill="#272223"/>
<path d="M161.171 178.744C155.61 183.073 149.581 186.825 143.167 189.91C142.368 190.295 141.56 190.667 140.749 191.033C140.605 191.097 140.463 191.161 140.319 191.222C139.62 191.533 138.918 191.835 138.209 192.126C137.859 191.992 137.513 191.847 137.17 191.697C133.652 190.157 130.509 187.816 127.735 185.081C124.009 181.396 120.956 176.989 118.56 172.827C117.38 170.777 116.36 168.786 115.497 166.971L115.485 166.942C113.16 162.025 112.008 158.408 112.008 158.408L108.914 145.698L108.064 142.212L103.228 122.367L101.47 115.151L104.094 115.036L111.261 114.722L119.166 114.372C120.988 114.51 122.764 114.85 124.474 115.382C129.961 117.066 134.733 120.664 137.866 125.616C146.48 139.236 160.273 163.26 161.174 178.744H161.171Z" fill="#DDDEDF"/>
<path d="M71.1072 106.31C75.2666 104.812 86.276 104.805 91.2146 106.473C92.1735 106.797 92.754 107.772 92.5872 108.769L92.3916 109.953C92.8213 109.889 93.2414 109.767 93.6391 109.584C94.816 109.045 97.1346 108.314 99.4757 109.481C101.111 110.296 102.262 111.832 102.667 113.618C103.632 117.89 101.198 120.254 101.198 120.254L97.9556 123.297C95.2393 125.844 92.2761 128.114 89.1109 130.07L89.0467 130.109L90.2012 123.163C90.8522 124.307 92.3242 124.683 93.4434 123.99C96.272 122.239 100.893 118.73 100.332 114.747C99.9407 111.97 98.3981 111.38 96.9165 111.505C95.2586 111.646 93.8122 112.688 93.1035 114.192C92.9335 114.552 92.6545 114.847 92.3082 115.039L91.4744 115.495L89.0307 130.218C88.9217 130.879 88.4984 131.449 87.8987 131.745C82.1519 134.563 75.9497 133.101 73.8042 132.444C73.3136 132.293 72.8935 131.969 72.6305 131.526L72.1687 130.76C72.0083 130.497 71.9121 130.199 71.8801 129.894L69.7475 108.465C69.6545 107.519 70.2157 106.633 71.1104 106.31H71.1072Z" fill="#0DC7ED"/>
<path d="M90.724 107.448C90.724 107.952 86.3978 108.359 81.0615 108.359C75.7252 108.359 71.399 107.952 71.399 107.448C71.399 106.945 75.7252 106.537 81.0615 106.537C86.3978 106.537 90.724 106.945 90.724 107.448Z" fill="#DEDFE0"/>
<path d="M95.3965 127.563C91.7598 122.335 91.6283 116.187 95.1014 113.827C98.5745 111.466 104.334 113.788 107.971 119.019C109.452 121.088 110.395 123.486 110.722 126.017L125.833 148.36L114.744 155.384L101.025 132.614C98.7509 131.408 96.8203 129.676 95.3965 127.566V127.563Z" fill="#F6A6A9"/>
<path d="M104.341 145.634L116.828 134.14L141.518 157.131L118.557 172.827L104.341 145.634Z" fill="#DDDEDF"/>
<path opacity="0.1" d="M139.338 160.319L140.319 167.859L133.777 160.319V152.715L139.338 160.319Z" fill="#272223"/>
</svg>
